PathFileType	3	(X/Y/Z)	C:\Users\jcho911\Documents\Smart Splint MAP workflow\data\P09\mocap\P09EMGstatic01.trc
DataRate	CameraRate	NumFrames	NumMarkers	Units	OrigDataRate	OrigDataStartFrame	OrigNumFrames
200.0	200.0	5	37	mm	200.0	374	995	
Frame#	Time	LAS1			RAS1			LPS1			RPS1			RTH1			RTH2			RTH3			RLFC			RMFC			LTH1			LTH2			LTH3			LLFC			LMFC			LTB1			LTB2			LTB3			LLMAL			LMMAL			LToe			LMT1			LCAL			LMT5			RToe			RMT5			RMT1			RCAL			RTB1			RTB2			RTB3			RMMAL			RLMAL			T10			RACR1			CLAV			C7			LACR1			
		X1	Y1	Z1	X2	Y2	Z2	X3	Y3	Z3	X4	Y4	Z4	X5	Y5	Z5	X6	Y6	Z6	X7	Y7	Z7	X8	Y8	Z8	X9	Y9	Z9	X10	Y10	Z10	X11	Y11	Z11	X12	Y12	Z12	X13	Y13	Z13	X14	Y14	Z14	X15	Y15	Z15	X16	Y16	Z16	X17	Y17	Z17	X18	Y18	Z18	X19	Y19	Z19	X20	Y20	Z20	X21	Y21	Z21	X22	Y22	Z22	X23	Y23	Z23	X24	Y24	Z24	X25	Y25	Z25	X26	Y26	Z26	X27	Y27	Z27	X28	Y28	Z28	X29	Y29	Z29	X30	Y30	Z30	X31	Y31	Z31	X32	Y32	Z32	X33	Y33	Z33	X34	Y34	Z34	X35	Y35	Z35	X36	Y36	Z36	X37	Y37	Z37	
374	1.86	328.75983	1040.766	-814.94354	594.81293	1032.1825	-815.27075	417.29355	1094.2866	-631.43146	512.83392	1093.489	-628.42328	673.06213	781.64337	-722.79279	635.63867	681.13318	-795.50806	656.14221	611.20447	-689.2309	649.6734	525.16742	-695.86237	538.60693	511.35123	-722.03027	270.34772	685.52686	-738.24304	294.08331	760.16498	-821.61383	332.51083	625.62915	-792.11859	296.15463	526.974	-716.19714	396.53299	517.37964	-744.25977	270.67978	318.0755	-684.62592	272.1091	403.07581	-648.38824	295.3331	224.16217	-619.64893	286.80978	89.825378	-640.99146	372.43637	90.269653	-681.74762	258.33575	29.772514	-851.15503	322.83759	24.242052	-818.08136	337.40329	40.736984	-588.60437	218.65956	27.623785	-768.76215	667.25464	33.432808	-841.34698	716.04108	29.8104	-768.95496	607.02399	25.187847	-809.33569	623.30798	48.399338	-579.61243	680.328	326.75266	-624.17139	639.78546	403.00159	-718.9873	674.13446	205.91489	-659.68268	575.58252	94.800247	-660.40283	671.1825	84.23082	-635.04474	459.57706	1334.823	-610.24725	686.57605	1524.5056	-711.42657	455.17072	1470.1395	-820.36371	470.68307	1588.7095	-656.44537	234.52797	1533.1056	-733.88776
375	1.865	328.75299	1040.7612	-814.90173	594.77362	1032.1941	-815.25739	417.22842	1094.2712	-631.4071	512.79907	1093.4928	-628.42017	673.02057	781.66119	-722.70386	635.60382	681.12677	-795.41833	656.17499	611.21472	-689.16943	649.64636	525.19751	-695.83313	538.60919	511.34949	-722.02942	270.31827	685.53204	-738.22229	294.15247	760.1806	-821.70532	332.55606	625.64807	-792.10638	296.15494	526.95868	-716.20233	396.5329	517.40839	-744.245	270.83661	318.07184	-684.69043	272.10852	403.10046	-648.38483	295.27823	224.17033	-619.68604	286.78867	89.846695	-641.02301	372.47729	90.296097	-681.72382	258.32538	29.762102	-851.18011	322.76413	24.220385	-818.08777	337.4079	40.7323	-588.61115	218.64709	27.624069	-768.81189	667.24475	33.438084	-841.35236	716.10669	29.849169	-768.86969	607.44647	24.796368	-809.08691	623.33661	48.405357	-579.64056	680.34943	326.74506	-624.17816	639.76617	402.94702	-718.95337	674.09607	205.93022	-659.60754	575.57562	94.756706	-660.50806	671.19641	84.257599	-635.00146	459.58182	1334.8479	-610.24786	686.51611	1524.4607	-711.46997	455.12366	1470.1027	-820.37158	470.7103	1588.6722	-656.37952	234.52461	1533.1342	-733.84558
376	1.87	328.75665	1040.7727	-814.92719	594.76489	1032.2056	-815.19159	417.23569	1094.3105	-631.36652	512.75989	1093.4507	-628.49023	673.04443	781.6665	-722.69379	635.60645	681.13013	-795.41711	656.17761	611.21143	-689.17133	649.64362	525.16846	-695.82678	538.62756	511.36899	-721.97089	270.31824	685.55292	-738.21912	294.01364	760.12732	-821.40051	332.55341	625.66022	-792.08661	296.12033	526.9776	-716.17676	396.52463	517.43304	-744.25299	270.83975	318.1012	-684.68036	272.13812	403.08447	-648.41595	295.28351	224.16728	-619.66589	286.77579	89.819138	-641.05139	372.46338	90.298141	-681.68109	258.31961	29.770058	-851.1424	322.76196	24.187132	-818.07471	337.37976	40.730579	-588.6377	218.65562	27.622665	-768.7627	667.24188	33.432964	-841.33765	716.05524	29.778868	-768.93634	607.03558	25.215475	-809.3551	623.32806	48.380692	-579.63123	680.39111	326.73856	-624.17554	639.80493	402.92972	-718.94434	674.13702	205.89871	-659.67804	575.55859	94.769173	-660.45978	671.20508	84.285225	-634.99243	459.58234	1334.8485	-610.24768	686.50244	1524.4243	-711.44287	455.09052	1470.0966	-820.33136	470.7139	1588.6921	-656.37897	234.53195	1533.1406	-733.815
377	1.875	328.69351	1040.7877	-814.88593	594.76575	1032.1758	-815.15881	417.22888	1094.2732	-631.36511	512.7663	1093.4827	-628.48792	673.04596	781.62921	-722.69031	635.61981	681.09735	-795.39099	656.08356	611.21686	-689.13141	649.66254	525.1842	-695.81183	538.61353	511.40881	-722.03784	270.27887	685.56146	-738.22107	294.01367	760.15674	-821.40741	332.55173	625.66071	-792.09015	296.0863	526.95105	-716.21112	396.57092	517.43585	-744.24872	270.68127	318.08084	-684.65826	272.10669	403.08713	-648.43909	295.30331	224.18478	-619.71204	286.79977	89.827286	-641.02838	372.46021	90.297501	-681.68109	258.33664	29.759481	-851.14777	322.82465	24.264385	-818.0495	337.37799	40.772182	-588.62463	218.65161	27.629307	-768.79053	667.2038	33.434834	-841.36182	716.1051	29.850727	-768.87238	607.03198	25.18615	-809.36084	623.31708	48.378918	-579.64746	680.37122	326.78668	-624.17047	639.80579	402.95795	-718.93799	674.164	205.9066	-659.70746	575.55634	94.779869	-660.44324	671.18225	84.253929	-635.01105	459.56155	1334.824	-610.18787	686.46063	1524.3837	-711.42126	455.09171	1470.1055	-820.30084	470.66452	1588.7043	-656.39825	234.47693	1533.0917	-733.80084
378	1.88	328.65097	1040.771	-814.80908	594.79474	1032.1929	-815.1286	417.22784	1094.2732	-631.3642	512.70728	1093.4302	-628.42273	673.01886	781.66211	-722.64764	635.62158	681.10474	-795.38702	656.1759	611.23108	-689.16864	649.64191	525.16412	-695.82983	538.6283	511.3399	-722.0777	270.31644	685.53259	-738.22803	293.97491	760.15729	-821.33258	332.5228	625.68048	-792.08752	296.08005	526.99634	-716.21216	396.88086	517.73877	-744.83649	270.61295	318.07352	-684.62878	272.08109	403.08517	-648.43298	295.30441	224.13153	-619.71075	286.79767	89.840469	-641.03467	372.45999	90.297882	-681.67859	258.34305	29.768963	-851.15179	322.81711	24.251717	-818.05597	337.38123	40.772106	-588.62897	218.64357	27.637854	-768.77185	667.2088	33.447689	-841.37061	716.03351	29.766445	-768.94946	607.03278	25.178814	-809.36877	623.33057	48.401154	-579.64758	680.48224	326.77194	-624.22076	639.76752	402.9501	-718.89679	674.1637	205.92966	-659.70197	575.55389	94.777794	-660.4425	671.15741	84.275291	-635.0235	459.51868	1334.8287	-610.17181	686.45612	1524.3885	-711.38599	455.0976	1470.1316	-820.32166	470.72873	1588.7239	-656.34674	234.4881	1533.1056	-733.77673
